<svg width="235" height="38" viewBox="0 0 235 38" fill="none" xmlns="http://www.w3.org/2000/svg">
<path id="Vector" d="M234.87 10.479C235.028 10.7209 235.043 11.0321 234.908 11.2883L224.589 36.5348C224.525 36.6873 224.419 36.8184 224.285 36.9132C224.151 37.008 223.993 37.0628 223.83 37.0713H220.198C220.055 37.0831 219.912 37.0555 219.783 36.9914C219.655 36.9272 219.546 36.8288 219.468 36.7068C219.39 36.5847 219.346 36.4435 219.341 36.2982C219.336 36.1528 219.37 36.0088 219.439 35.8814L222.955 26.8791L217.425 11.2889C217.358 11.1631 217.327 11.0213 217.333 10.8787C217.34 10.736 217.385 10.5979 217.463 10.4791C217.541 10.3603 217.649 10.2652 217.776 10.204C217.903 10.1428 218.044 10.1178 218.184 10.1317H221.816C221.976 10.1174 222.135 10.1596 222.268 10.2513C222.4 10.3429 222.497 10.4783 222.542 10.6343L225.679 21.246H225.762L229.74 10.6343C230.004 10.1655 230.302 10.1317 230.846 10.1317H234.148C234.433 10.103 234.711 10.2365 234.87 10.479ZM121.556 9.74591C122.809 9.73871 124.048 10.0078 125.188 10.5346C126.328 11.0613 127.342 11.8332 128.16 12.7969C128.54 13.1826 128.357 13.6853 127.978 14.0711L126.327 15.8479C125.948 16.2675 125.535 16.0657 125.188 15.731C124.746 15.2412 124.207 14.851 123.607 14.5853C123.007 14.3197 122.359 14.1845 121.705 14.1886C121.081 14.1832 120.462 14.3071 119.887 14.5527C119.312 14.7984 118.792 15.1606 118.359 15.6172C117.926 16.0738 117.59 16.6152 117.37 17.2083C117.151 17.8015 117.053 18.4338 117.082 19.0668C117.043 19.7016 117.134 20.3377 117.347 20.9356C117.561 21.5335 117.893 22.0804 118.324 22.5425C118.754 23.0046 119.273 23.3721 119.849 23.622C120.425 23.8719 121.046 23.9991 121.672 23.9955C122.399 23.987 123.114 23.8051 123.759 23.4644C124.404 23.1237 124.962 22.6338 125.386 22.0341C125.522 21.8826 125.708 21.787 125.909 21.7653C126.11 21.7437 126.311 21.7975 126.475 21.9166L128.127 23.3753C128.54 23.7605 128.738 24.1967 128.424 24.6495C127.694 25.8364 126.668 26.8068 125.451 27.4631C124.234 28.1194 122.868 28.4383 121.49 28.3877C120.255 28.4417 119.022 28.2412 117.865 27.7984C116.708 27.3556 115.651 26.6796 114.758 25.8111C113.865 24.9426 113.155 23.8995 112.669 22.7448C112.184 21.5901 111.934 20.3476 111.934 19.092C111.934 17.8365 112.184 16.594 112.669 15.4393C113.155 14.2845 113.865 13.2415 114.758 12.373C115.651 11.5045 116.708 10.8285 117.865 10.3857C119.022 9.94286 120.255 9.74239 121.49 9.79635L121.556 9.74591ZM138.908 9.74591C144.355 9.74591 145.511 12.6295 145.511 17.4912V27.0631C145.511 27.5291 145.144 27.9091 144.685 27.9183H143.398C143.084 27.9183 142.869 27.8008 142.638 27.2981L142.143 26.1076C141.416 26.828 140.556 27.3958 139.613 27.7784C138.669 28.161 137.661 28.3509 136.645 28.3373C135.849 28.3875 135.052 28.2638 134.307 27.9745C133.562 27.6853 132.886 27.2372 132.326 26.6605C131.766 26.0838 131.334 25.3919 131.06 24.6314C130.786 23.8709 130.675 23.0595 130.735 22.2519C130.818 19.1006 133.36 16.6692 137.784 16.6692C138.902 16.6916 140.012 16.8607 141.086 17.1725C141.086 14.9096 140.508 13.8194 138.659 13.8194C136.99 13.8481 135.328 14.0676 133.707 14.4734C133.146 14.6746 132.799 14.2556 132.733 13.7191L132.353 11.7073C132.312 11.5998 132.295 11.4847 132.302 11.3698C132.309 11.2548 132.34 11.1427 132.393 11.041C132.446 10.9393 132.52 10.8503 132.61 10.7802C132.7 10.71 132.804 10.6603 132.914 10.6343C134.863 10.0625 136.879 9.76357 138.908 9.74591ZM50.8151 9.74591C56.2795 9.74591 57.4192 12.6295 57.4192 17.4912V27.0631C57.4192 27.5354 57.0415 27.9183 56.577 27.9183H55.2889C54.992 27.9183 54.7606 27.8008 54.5297 27.2981L54.0341 26.1076C53.3082 26.8295 52.4485 27.3982 51.5049 27.7809C50.5613 28.1636 49.5524 28.3527 48.5364 28.3373C47.7403 28.3875 46.9429 28.2638 46.1978 27.9745C45.4528 27.6853 44.7775 27.2372 44.2174 26.6605C43.6574 26.0838 43.2256 25.3919 42.9512 24.6314C42.6767 23.8709 42.566 23.0595 42.6265 22.2519C42.7259 19.1006 45.2682 16.6692 49.7093 16.6692C50.8269 16.6893 51.9366 16.8584 53.0114 17.1725C53.0114 14.9096 52.4497 13.8194 50.5842 13.8194C48.914 13.8481 47.2528 14.0676 45.6311 14.4734C45.0537 14.6746 44.7235 14.2556 44.6405 13.7191L44.2612 11.7073C44.2205 11.5998 44.2029 11.4847 44.2098 11.3698C44.2167 11.2548 44.2477 11.1427 44.3009 11.041C44.3541 10.9393 44.4282 10.8503 44.5181 10.7802C44.6081 10.71 44.7118 10.6603 44.8223 10.6343C46.7707 10.0625 48.7869 9.76357 50.8151 9.74591ZM183.82 12.0988C184.573 12.8697 185.163 13.7889 185.553 14.7998C185.943 15.8107 186.126 16.892 186.09 17.9772C186.09 18.2455 186.09 18.8656 186.007 19.1339C185.988 19.3463 185.894 19.5445 185.742 19.6922C185.591 19.84 185.392 19.9274 185.182 19.9386H173.956C173.975 20.5001 174.103 21.0523 174.332 21.5636C174.562 22.0748 174.888 22.5351 175.293 22.9181C175.698 23.3012 176.173 23.5994 176.691 23.7958C177.21 23.9921 177.761 24.0828 178.314 24.0626C179.676 24.0901 181.004 23.627 182.062 22.7552C182.491 22.4027 182.937 22.3694 183.201 22.7552L184.686 24.7498C184.765 24.8265 184.826 24.9199 184.865 25.0232C184.904 25.1266 184.92 25.2374 184.912 25.3478C184.904 25.4581 184.873 25.5654 184.819 25.662C184.766 25.7585 184.693 25.842 184.604 25.9065C182.791 27.4895 180.474 28.3529 178.083 28.3373C176.892 28.3379 175.713 28.0948 174.617 27.6225C173.52 27.1503 172.529 26.4585 171.701 25.5885C170.874 24.7186 170.228 23.6882 169.801 22.5591C169.375 21.4299 169.177 20.225 169.219 19.0164C169.183 17.8146 169.386 16.6178 169.813 15.4967C170.241 14.3755 170.885 13.3527 171.709 12.4886C172.532 11.6245 173.517 10.9367 174.607 10.4656C175.696 9.99452 176.867 9.74982 178.051 9.74591C179.12 9.71795 180.183 9.91224 181.176 10.3169C182.168 10.7215 183.068 11.3279 183.821 12.0988H183.82ZM165.355 0.978695C165.574 0.982635 165.784 1.07167 165.94 1.22751C166.097 1.38335 166.189 1.59417 166.197 1.81667V27.0637C166.197 27.536 165.82 27.9189 165.355 27.9189H163.952C163.539 27.9189 163.274 27.5669 163.127 27.0637L162.664 25.6726C161.958 26.5094 161.082 27.181 160.096 27.6411C159.11 28.1012 158.037 28.3389 156.952 28.3379C152.164 28.3379 148.565 24.4151 148.565 19.017C148.493 17.8186 148.664 16.6179 149.069 15.4898C149.474 14.3617 150.103 13.3305 150.918 12.4605C151.733 11.5906 152.716 10.9006 153.805 10.4336C154.894 9.96661 156.067 9.73271 157.249 9.74649C158.683 9.74878 160.107 9.99811 161.459 10.4842V1.81782C161.475 1.60066 161.566 1.39637 161.718 1.24237C161.869 1.08838 162.071 0.994971 162.284 0.979268L165.355 0.978695ZM4.68909 1.06238C5.19145 1.06238 5.59786 1.47506 5.59786 1.98461V12.3779L15.1563 1.44755C15.2388 1.32564 15.3499 1.22655 15.4796 1.15929C15.6093 1.09203 15.7535 1.05872 15.8991 1.06238H19.6962C19.856 1.05511 20.0142 1.0971 20.15 1.18284C20.2859 1.26857 20.393 1.39404 20.4573 1.54275C20.5216 1.69146 20.5401 1.85645 20.5103 2.01602C20.4806 2.1756 20.404 2.3223 20.2906 2.43684L10.385 13.7529L21.0007 26.6441C21.0919 26.7714 21.1468 26.9219 21.1592 27.0788C21.1716 27.2358 21.1411 27.3932 21.0711 27.5337C21.001 27.6742 20.8942 27.7923 20.7622 27.875C20.6303 27.9578 20.4784 28.0019 20.3233 28.0025H16.1966C16.0688 28.0099 15.941 27.9897 15.8214 27.9434C15.7019 27.8971 15.5933 27.8256 15.5029 27.7337L5.59729 15.3286V27.0631C5.59729 27.5755 5.19371 27.9928 4.68965 28.002H1.3876C1.26694 28.002 1.14749 27.9776 1.03622 27.9302C0.924953 27.8828 0.824099 27.8134 0.739547 27.726C0.654995 27.6386 0.588439 27.535 0.543772 27.4212C0.499106 27.3073 0.477221 27.1856 0.479396 27.0631V1.90093C0.496261 1.66955 0.599935 1.45357 0.769029 1.29754C0.938124 1.14152 1.15974 1.05734 1.38817 1.06238H4.68909ZM99.4675 0.64339C99.6022 0.637686 99.7352 0.675057 99.8478 0.750232C99.9604 0.825407 100.047 0.93459 100.095 1.06238L111.767 26.9628C111.823 27.071 111.849 27.1923 111.844 27.3143C111.838 27.4363 111.801 27.5546 111.735 27.657C111.67 27.7595 111.578 27.8423 111.471 27.8971C111.363 27.9519 111.244 27.9766 111.123 27.9687H107.821C107.579 27.984 107.338 27.9163 107.137 27.7765C106.937 27.6367 106.788 27.4328 106.715 27.1972L104.866 23.04H93.6068L91.7413 27.1972C91.662 27.4254 91.5142 27.6225 91.3188 27.7609C91.1234 27.8993 90.8901 27.972 90.6519 27.9687H87.3499C87.2204 27.9909 87.0874 27.9734 86.9678 27.9185C86.8482 27.8635 86.7474 27.7736 86.6784 27.6602C86.6093 27.5469 86.5751 27.4152 86.5801 27.282C86.5851 27.1488 86.629 27.0201 86.7064 26.9124L98.4442 1.06238C98.491 0.944586 98.5698 0.842725 98.6715 0.768651C98.7731 0.694577 98.8933 0.651336 99.0182 0.643963L99.4675 0.64339ZM27.6866 0.978695C27.9058 0.982635 28.1153 1.07167 28.2719 1.22751C28.4285 1.38335 28.5204 1.59417 28.5288 1.81667V11.2556C29.7873 10.2243 31.37 9.68842 32.9863 9.74649C38.5659 9.74649 40.0848 13.6693 40.0848 18.1285V27.0471C40.0767 27.2712 39.9854 27.484 39.8291 27.6426C39.6729 27.8013 39.4634 27.894 39.2426 27.9022H36.172C35.9516 27.8977 35.7417 27.8057 35.5874 27.6458C35.4331 27.4859 35.3468 27.2709 35.3468 27.0471V18.0947C35.3468 15.6301 34.2405 14.1381 32.1605 14.1381C31.2852 14.1204 30.4336 14.4273 29.7652 15.0012C29.0967 15.5752 28.6571 16.3768 28.5288 17.2562V27.0631C28.5288 27.5664 28.2973 27.9183 27.6042 27.9183H24.616C24.3969 27.9098 24.1892 27.8165 24.0358 27.6575C23.8823 27.4984 23.7946 27.2857 23.7907 27.0631V1.81667C23.8062 1.59962 23.8981 1.39547 24.0496 1.24159C24.2012 1.0877 24.4022 0.994381 24.616 0.978695H27.6866ZM203.028 12.4284C203.723 11.5922 204.586 10.9181 205.561 10.4522C206.535 9.98641 207.598 9.7398 208.675 9.72929C214.271 9.72929 215.608 13.3506 215.608 17.96V27.0465C215.606 27.161 215.582 27.274 215.537 27.379C215.492 27.484 215.427 27.5789 215.345 27.6583C215.264 27.7377 215.168 27.8001 215.063 27.8419C214.958 27.8836 214.846 27.904 214.733 27.9017H211.696C211.476 27.8973 211.266 27.8053 211.111 27.6454C210.957 27.4855 210.87 27.2705 210.87 27.0465V17.8265C210.87 15.5298 210.029 14.1049 207.833 14.1049C207.163 14.0335 206.488 14.172 205.897 14.5015C205.307 14.8311 204.83 15.3361 204.531 15.9488V27.0133C204.527 27.2358 204.439 27.4483 204.286 27.6072C204.132 27.7661 203.925 27.8594 203.706 27.8679H200.8C200.689 27.8702 200.578 27.8497 200.475 27.8076C200.372 27.7655 200.278 27.7026 200.199 27.6228C200.121 27.543 200.059 27.4478 200.017 27.3431C199.976 27.2383 199.955 27.1262 199.958 27.0133V17.8265C199.958 15.5298 199.314 14.1049 197.085 14.1049C196.309 14.1241 195.562 14.4071 194.964 14.9086C194.365 15.4102 193.949 16.1012 193.783 16.871V27.0293C193.779 27.2518 193.691 27.4644 193.538 27.6233C193.384 27.7822 193.177 27.8754 192.958 27.8839H189.887C189.668 27.8754 189.461 27.7822 189.307 27.6233C189.154 27.4644 189.066 27.2518 189.062 27.0293L188.897 10.9863C188.897 10.5203 189.264 10.1403 189.722 10.1311H191.092C191.251 10.114 191.409 10.1555 191.54 10.2478C191.67 10.3402 191.764 10.4772 191.802 10.6338L192.446 12.3103C193.078 11.4868 193.891 10.8246 194.82 10.3764C195.748 9.92824 196.767 9.70645 197.795 9.72872C198.823 9.68172 199.845 9.90559 200.762 10.3786C201.679 10.8515 202.46 11.5575 203.029 12.4278L203.028 12.4284ZM70.7916 9.76311C76.3549 9.76311 77.7914 13.5684 77.7914 17.8769V27.0803C77.7757 27.2912 77.6849 27.4891 77.5361 27.6371C77.3873 27.785 77.1905 27.873 76.9826 27.8845H73.8459C73.6226 27.8845 73.4085 27.7945 73.2506 27.6342C73.0927 27.474 73.0039 27.2566 73.0037 27.0299V17.8265C73.0037 15.5298 72.0955 14.1049 69.9828 14.1049C69.1392 14.0815 68.3113 14.3393 67.6256 14.8388C66.9399 15.3383 66.4342 16.0521 66.1857 16.871V27.0293C66.1857 27.6827 65.9215 27.8839 65.0963 27.8839H62.2893C62.0687 27.8755 61.8594 27.7828 61.7033 27.6243C61.5472 27.4658 61.4559 27.2533 61.4477 27.0293V10.9863C61.4477 10.514 61.8242 10.1311 62.2893 10.1311H63.7755C64.1141 10.1047 64.4218 10.3317 64.5019 10.6676L65.1454 12.3441C65.8302 11.5048 66.695 10.8358 67.6737 10.3884C68.6523 9.94091 69.7189 9.7274 70.7916 9.76311ZM138.479 19.7208C136.465 19.7208 135.375 20.6763 135.375 22.2519C135.349 22.5925 135.397 22.9348 135.515 23.2544C135.634 23.5741 135.82 23.8633 136.061 24.1017C136.302 24.34 136.592 24.5216 136.91 24.6336C137.228 24.7456 137.566 24.7853 137.901 24.7498C138.541 24.7313 139.167 24.5477 139.718 24.2164C140.27 23.885 140.729 23.4167 141.054 22.8555V20.2573C140.236 19.9146 139.363 19.7325 138.479 19.7208ZM50.3867 19.7208C48.3721 19.7208 47.2827 20.6763 47.2827 22.2519C47.2593 22.5933 47.3097 22.9358 47.4304 23.2554C47.551 23.5749 47.7391 23.8638 47.9813 24.1018C48.2235 24.3397 48.514 24.5211 48.8325 24.633C49.151 24.7449 49.4897 24.7848 49.825 24.7498C50.4635 24.7316 51.0868 24.548 51.6358 24.2165C52.1847 23.885 52.6411 23.4165 52.9617 22.8555V20.2573C52.1445 19.9146 51.2707 19.7325 50.3867 19.7208ZM157.811 14.1381C157.202 14.1451 156.601 14.2795 156.046 14.5331C155.49 14.7867 154.993 15.1539 154.583 15.6118C154.174 16.0698 153.863 16.6085 153.668 17.1943C153.474 17.7801 153.4 18.4004 153.452 19.0164C153.452 21.5315 154.856 23.9456 157.596 23.9456C158.41 23.9821 159.216 23.7657 159.906 23.3254C160.596 22.8851 161.138 22.2418 161.459 21.481V15.144C160.359 14.4704 159.095 14.122 157.811 14.1381ZM99.2864 10.2492H99.1706L95.4565 18.7149H103.066L99.2864 10.2492ZM174.336 16.7867H181.352C181.305 15.9389 180.933 15.1433 180.316 14.5701C179.699 13.9969 178.886 13.6914 178.05 13.7191C177.162 13.6515 176.283 13.9318 175.592 14.5023C174.901 15.0728 174.452 15.8903 174.336 16.7867Z" fill="black"/>
</svg>
