<svg width="107" height="35" viewBox="0 0 107 35" fill="none" xmlns="http://www.w3.org/2000/svg">
<path id="Vector" d="M0 7.85186H4.35377V18.6045C4.35377 21.3827 6.39471 22.7368 8.31131 22.7368C10.2444 22.7368 12.2699 21.3466 12.2699 18.5673V7.85208H16.6237V18.8607C16.6237 21.4199 15.832 23.3947 14.2492 24.7488C12.6651 26.102 10.6868 26.7607 8.27453 26.7607C5.86452 26.7607 3.88523 26.103 2.33895 24.749C0.791424 23.3955 0 21.4942 0 18.9699V7.85186ZM54.2636 21.2155C52.9458 22.4086 51.4444 22.993 49.7324 22.993C46.6092 22.993 44.5149 21.1843 44.2784 18.3831H58.3453C58.3453 18.3831 58.44 17.479 58.44 16.6299C58.44 13.9961 57.6118 11.8012 55.92 10.0094C54.2661 8.21746 52.1082 7.33947 49.4804 7.33947C46.7107 7.33947 44.4428 8.21746 42.6433 10.0094C40.8805 11.8012 39.9814 14.1416 39.9814 17.0688V17.2132C39.9814 20.103 40.8805 22.4073 42.6433 24.127C44.4063 25.8456 46.7452 26.7235 49.588 26.7235C52.8937 26.7235 55.5236 25.3982 57.497 23.1132L54.2636 21.2155ZM45.9891 12.2401C46.9592 11.4718 48.1483 11.07 49.4791 11.07C50.7381 11.07 51.7815 11.4718 52.6818 12.2775C53.5408 13.0111 54.0047 13.912 54.0448 14.9474H44.3897C44.5291 13.877 45.0616 12.9752 45.9904 12.2414L45.9891 12.2403V12.2401ZM98.0902 29.2082C96.3238 33.4473 94.4758 34.8893 91.6424 34.8893H89.6783V30.9663H91.266C92.2409 30.9663 93.1473 30.5935 94.0108 28.5683L94.8745 26.5406L87.4257 7.85186H91.8518L97.1412 21.3118L102.575 7.85186H107L98.0914 29.208H98.0902V29.2082ZM33.5725 0.793701V9.52118C32.1458 8.22235 29.9264 7.44908 27.7801 7.44908C25.2246 7.44908 23.0667 8.36298 21.3039 10.2271C19.5766 12.0562 18.7129 14.3233 18.7129 17.0665C18.7129 19.8109 19.5766 22.0778 21.3039 23.943C23.0667 25.7721 25.2259 26.6874 27.7803 26.6874C30.7261 26.6874 32.5882 25.5101 33.5725 24.5877V26.2847H37.891V0.794764H33.5725V0.793701ZM32.277 21.0917C31.2336 22.1524 29.9027 22.7019 28.3552 22.7019C26.8077 22.7019 25.549 22.1524 24.5053 21.0917C23.4997 20.031 22.9946 18.678 22.9946 17.0688C22.9946 15.4585 23.4986 14.1055 24.5055 13.0448C25.549 11.9842 26.8077 11.4356 28.355 11.4356C29.9027 11.4356 31.2336 11.9842 32.277 13.0448C33.356 14.1055 33.8979 15.4585 33.8979 17.0688C33.8979 18.678 33.356 20.031 32.277 21.0917ZM80.7129 7.48626C77.4333 7.48626 75.7286 8.86921 74.5608 10.2018C74.0935 9.29621 72.778 7.48626 69.704 7.48626C67.1061 7.48626 65.5753 8.8212 64.8109 9.77121V7.8542H60.5304V26.287H64.8109V15.6799C64.8109 13.1927 66.3229 11.4008 68.3364 11.4008C70.3893 11.4008 71.5757 12.9739 71.5757 15.497V26.2857H75.8576V15.6786C75.8576 13.1555 77.3315 11.3997 79.4542 11.3997C81.5056 11.3997 82.6922 12.9726 82.6922 15.4946V26.2847H87.0104V14.8739C87.0104 10.0682 84.4692 7.48732 80.7129 7.48732V7.48605V7.48626Z" fill="black"/>
</svg>
